<?xml version="1.0"?>
<svg xmlns="http://www.w3.org/2000/svg" id="icon" viewBox="0 0 128 128" width="512" height="512"><title>1</title><path d="M121.718,42.578H50.226a5.282,5.282,0,0,0-5.282,5.282V91.239a5.282,5.282,0,0,0,5.282,5.282h50.664L115.6,115.066V96.521h6.119A5.282,5.282,0,0,0,127,91.239V47.86A5.282,5.282,0,0,0,121.718,42.578Z" fill="#3dbce9"/><path d="M126.975,47.3a2.061,2.061,0,0,0-.28-.013H55.2a5.273,5.273,0,0,0-5.279,5.279V95.94c0,.191.013.382.026.574a5.281,5.281,0,0,1-5.011-5.279V47.858a5.284,5.284,0,0,1,5.291-5.279h71.492A5.3,5.3,0,0,1,126.975,47.3Z" fill="#5fc4f8"/><path d="M115.6,116.066a1,1,0,0,1-.783-.378L100.407,97.521H50.227a6.29,6.29,0,0,1-6.282-6.282V47.86a6.29,6.29,0,0,1,6.282-6.282h71.491A6.29,6.29,0,0,1,128,47.86V91.239a6.29,6.29,0,0,1-6.282,6.282H116.6v17.545a1,1,0,0,1-1,1ZM50.227,43.578a4.287,4.287,0,0,0-4.282,4.282V91.239a4.287,4.287,0,0,0,4.282,4.282h50.664a1,1,0,0,1,.783.378L114.6,112.2V96.521a1,1,0,0,1,1-1h6.119A4.287,4.287,0,0,0,126,91.239V47.86a4.287,4.287,0,0,0-4.282-4.282Z" fill="#2f3a5a"/><path d="M6.282,12.936H77.774a5.282,5.282,0,0,1,5.282,5.282V61.6a5.282,5.282,0,0,1-5.282,5.282H27.109L12.4,85.425V66.88H6.282A5.282,5.282,0,0,1,1,61.6V18.218A5.282,5.282,0,0,1,6.282,12.936Z" fill="#d9e2e9"/><path d="M83.05,18.213V61.6a5.262,5.262,0,0,1-4.577,5.228V20.265a1.967,1.967,0,0,0-1.963-1.976H1v-.076a5.281,5.281,0,0,1,5.279-5.279H77.771A5.281,5.281,0,0,1,83.05,18.213Z" fill="#f0f5f9"/><path d="M12.4,86.425a1,1,0,0,1-1-1V67.88H6.282A6.29,6.29,0,0,1,0,61.6V18.218a6.29,6.29,0,0,1,6.282-6.282H77.773a6.29,6.29,0,0,1,6.282,6.282V61.6a6.29,6.29,0,0,1-6.282,6.283H27.593L13.185,86.046A1,1,0,0,1,12.4,86.425ZM6.282,13.936A4.287,4.287,0,0,0,2,18.218V61.6A4.287,4.287,0,0,0,6.282,65.88H12.4a1,1,0,0,1,1,1V82.555l12.925-16.3a1,1,0,0,1,.783-.378H77.773A4.287,4.287,0,0,0,82.056,61.6V18.218a4.287,4.287,0,0,0-4.282-4.282Z" fill="#2f3a5a"/><path d="M69.394,30.367H15.021a1,1,0,1,1,0-2H69.394a1,1,0,0,1,0,2Z" fill="#c1cdd3"/><path d="M69.394,39.824H15.021a1,1,0,1,1,0-2H69.394a1,1,0,0,1,0,2Z" fill="#c1cdd3"/><path d="M69.394,49.28H15.021a1,1,0,1,1,0-2H69.394a1,1,0,0,1,0,2Z" fill="#c1cdd3"/></svg>
